<?xml version="1.0" encoding="UTF-8"?>
<svg id="Capa_2" data-name="Capa 2" xmlns="http://www.w3.org/2000/svg" viewBox="0 0 1076.08 873.74">
  <defs>
    <style>
      .cls-1 {
        opacity: .1;
      }

      .cls-1, .cls-2, .cls-3, .cls-4, .cls-5, .cls-6, .cls-7, .cls-8 {
        stroke-width: 0px;
      }

      .cls-1, .cls-5 {
        fill: gray;
      }

      .cls-2 {
        fill: #000;
      }

      .cls-3, .cls-7 {
        fill: #f2f2f2;
      }

      .cls-9 {
        fill: #fcd8e3;
      }

      .cls-9, .cls-10, .cls-11 {
        stroke: #000;
        stroke-miterlimit: 10;
      }

      .cls-9, .cls-11 {
        stroke-width: 2px;
      }

      .cls-4, .cls-11 {
        fill: #fce7d2;
      }

      .cls-5 {
        opacity: .2;
      }

      .cls-6 {
        fill: #9c1a04;
      }

      .cls-10 {
        fill: #555;
        stroke-width: 3px;
      }

      .cls-7 {
        opacity: .6;
      }

      .cls-8 {
        fill: #ce3d14;
      }
    </style>
  </defs>
  <g id="Capa_1-2" data-name="Capa 1">
    <g>
      <path class="cls-8" d="M894.86,418.19l-4.62,36.6.17.84c22.96,9.89,48.21,12.37,73.28,13.81,5.01.29,8.64-4.7,6.83-9.38l-3.81-9.86c-.47-1.22-1.29-2.28-2.35-3.06-13.91-10.2-27.54-20.76-40.89-31.68-1.56-1.27-3.59-1.81-5.56-1.45-25.24,4.6-58.67,5.98-86.54-11.89-31.43-20.15-38.8-53.88-53.83-93.97-9.41-25.09-43.18-115.16-94.33-163.09-72.5-67.92-183.25-53.62-249.26-45.55-126.11,15.41-210.49,79.55-238.76,102.93-105.6,87.36-142.04,200.2-153.45,241.7l.99-2.52c-33.91,159.64-46.02,80.61-32.56,121.01,3.64,10.91,6.84,22.43,8.22,33.89,1.41,11.64,2.43,22.94,5.49,34.34,6.18,23.03,16.92,44.62,29.64,64.7,5.25,8.29,10.86,16.34,16.72,24.21,13.49,18.11,28.33,35.37,45.4,50.21s36.18,24.63,55.57,35.4c39.82,22.11,82.89,38.5,127.46,47.96,21.25,4.51,42.74,7.85,64.24,11,11.68,1.71,23.41,3.58,35.22,4.09,19.31.83,38.65-.12,57.93-1.3,66.7-4.1,137.49-10.12,199.67-36.6,29.78-12.37,54.85-27.35,79.56-47.42,36.13-30.72,65.69-65.29,107.14-90.3,29.24-17.35,58.84-29.68,82.37-56.6.28-.32.6-.62.93-.88l2.25-1.75c.39-.31.76-.65,1.08-1.03,17.45-20.77,27.16-42.54,34.32-67.61,6.1-24.43,9.11-48.24,11.24-73.17,1.01-16,3.39-34.85-11.19-45.35"/>
      <path class="cls-2" d="M889.86,418.19c-1,7.96-2.01,15.93-3.01,23.89-.54,4.29-2.44,10.25-1.34,14.46.81,3.11,3.41,3.87,6.11,4.97,3.94,1.6,7.95,2.98,12.02,4.2,15.32,4.57,31.31,6.61,47.21,7.87,6.45.51,15.07,2.65,20.6-1.72,4.19-3.32,5.33-8.6,3.74-13.55-1.02-3.16-2.35-6.32-3.63-9.38-2.61-6.24-9.46-9.61-14.66-13.53-7.06-5.31-14.04-10.73-20.94-16.24-5.51-4.4-10.99-11.04-18.7-10.05-13.17,1.69-25.91,3.49-39.25,2.58-14.97-1.03-29.78-5.08-42.62-12.95-21.79-13.35-32.71-36.12-41.26-59.27-6.77-18.32-13.06-36.79-20.37-54.9-17.57-43.52-38.68-86.85-68.64-123.29-16.36-19.89-36.09-36.59-59.06-48.37s-47-18.48-71.93-22.03c-45.49-6.47-91.22-2.33-136.56,3.21-54.32,6.64-106.82,21.95-155.84,46.37-31.13,15.51-60.57,34.42-87.53,56.39-41.9,34.16-77.28,76.04-104.84,122.5-19.94,33.61-35.92,69.67-47.58,106.97-1.71,5.47-3.32,10.98-4.84,16.5-1.75,6.34,7.35,8.52,9.64,2.66l.99-2.52-9.64-2.66c-5.08,23.84-10.52,47.74-18,70.96-3.15,9.77-6.42,20-12.05,28.68-.35.54-.71,1.06-1.08,1.58-.64.91.61-.57-.45.55-.57.61-1.14,1.19-1.76,1.75,1.35-1.21.18.22-.47.19.22.01,1.34-.49.15-.14-4.35,1.28-5.09,4.83-3.38,8.6.24.52.5,1.04.74,1.56.17.37.33.74.5,1.1.51,1.14-.35-.92.24.57,1.76,4.42,3.28,8.92,4.69,13.47,4.64,14.85,6.39,29.7,8.54,45.03s6.39,29.33,12.23,43.27c11.5,27.46,28.11,52.44,46.5,75.73,18.45,23.35,39.42,44.27,64.94,59.82,51.94,31.66,107.98,55.37,167.78,67.09,16.48,3.23,33.07,5.85,49.68,8.31,16.02,2.37,31.97,4.84,48.19,5.2,30.91.7,62.04-1.89,92.83-4.47,59.29-4.96,118.25-14.6,172.68-39.65,25.76-11.86,50.28-27.16,71.75-45.74s41.78-39.46,63.67-58.08c11.19-9.51,22.88-18.43,35.33-26.24,11.69-7.34,24-13.65,35.98-20.48s23.03-13.8,33.48-22.26c5.46-4.42,10.63-9.21,15.39-14.38,3.49-3.79,7.24-6.92,10.44-11.03,17.21-22.01,28.25-48.16,34.16-75.36,3.31-15.23,5.57-30.67,7.27-46.15,1.42-12.91,3.32-26.39,2.35-39.4-.86-11.49-4.96-21.24-14.26-28.31-5.12-3.9-10.11,4.78-5.05,8.63,9.74,7.41,9.87,20.34,9.32,31.46-.7,14.11-2.2,28.23-4.16,42.22-3.92,27.95-10.25,55.77-24.09,80.63-12.31,22.12-30.86,40.47-51.93,54.39-22.54,14.89-47.36,25.85-69.26,41.78-22.19,16.15-41.95,35.2-61.94,53.92-20.59,19.29-41.71,37.24-66.15,51.54-49.97,29.23-106.63,42.8-163.68,49.41-29.34,3.4-58.9,5.45-88.4,6.9-15.44.76-30.99,1.25-46.43.22-15.92-1.06-31.78-3.89-47.54-6.33-30.04-4.66-59.9-10.33-88.92-19.53-28.56-9.06-56.15-20.97-82.4-35.4-12.48-6.86-25.09-13.57-37.05-21.31-12.22-7.91-23.18-17.28-33.39-27.65-20.27-20.59-38.01-44.19-52.64-69.09-7.32-12.46-13.79-25.45-18.72-39.04-5.29-14.59-7.9-29.31-9.71-44.67-1.94-16.45-5.88-32.81-12.26-48.14-.64-1.53-1.23-3.3-2.12-4.71-.67-1.07.19.85.17.44.05,1.48-.69,6.5-3.26,5.84,2.02.52,5.35-2.7,6.5-3.87,4.96-5.1,7.88-12.34,10.54-18.79,6.33-15.36,10.73-31.54,14.82-47.61,3.41-13.39,6.45-26.87,9.33-40.38,1.36-6.4-7.33-8.59-9.64-2.66l-.99,2.52,9.64,2.66c20.67-74.97,58.83-145.49,112.3-202.14s125.66-100.83,202.21-123.55c44.45-13.19,91.31-19.12,137.55-21.6,44.86-2.41,91.8.42,133.34,19.01,22.21,9.94,41.88,24.16,58.28,42.13,15.79,17.3,28.77,37.06,40.28,57.41,18.1,31.99,32.57,65.94,45.05,100.47,8.09,22.38,14.85,46.4,28.93,65.94,14.57,20.23,36.57,33.05,61.11,37.08,12.69,2.09,25.58,2.2,38.35.82,2.83-.3,5.66-.68,8.47-1.09,3.21-.47,6.23-1.78,9.01.25,6.17,4.5,11.95,9.63,17.99,14.31s11.81,9.08,17.8,13.53c1.81,1.35,3.91,2.47,5.03,4.39,1,1.73,1.53,3.97,2.26,5.83.38.97,1.02,2.09,1.21,3.12.7,3.9-2.85,3.01-5.68,2.83-7.95-.49-15.89-1.11-23.8-2.09-14.76-1.83-29.54-5.01-43.29-10.82l2.3,2.99c-.48-2.37.95-7,1.29-9.69.51-4.01,1.01-8.02,1.52-12.04.6-4.8,1.21-9.59,1.81-14.39.8-6.37-9.2-6.31-10,0h0Z"/>
    </g>
    <path class="cls-4" d="M815.89,420.02c-3.13,4.64-6.06,9.41-8.83,14.27-30.56,53.47-41.79,117.58-32.04,178.39.63,3.95,1.38,7.95,3.25,11.49,3.52,6.65,10.45,10.66,17.02,14.32,19.1,10.63,38.2,21.25,57.3,31.88,6.82,3.79,12.86,5.9,19.52,1.71,6.94-4.36,14.67-7.65,21.46-12.3,7.6-5.2,14.66-11.16,21.13-17.7,13.03-13.15,23.71-28.6,31.81-45.23,15.84-32.49,22.22-68.92,23.56-105.04.39-10.52.27-21.5-4.4-30.93-4.68-9.44-13.34-16.18-21.71-22.57-11.23-8.58-23.07-17.43-37-19.77-9.89-1.66-19.99.12-30.02.21-15.06.14-30.14-3.61-43.39-10.79-1.8-.98-3.77-2.05-5.77-1.65-1.92.38-3.32,2-4.52,3.55-2.57,3.3-5.02,6.69-7.36,10.16Z"/>
    <path class="cls-6" d="M765.02,749.41c4.62-3.31,45.09-36.02,47.96-40.7-15.41-15.19-49.04-39.19-66.16-52.63-15.24-11.96-30.85-23.78-45.36-36.51-49.62-43.54-90.83-93.87-137.69-139.77-.77-.75-2.63-2.39-4.87-2.66-3.89-.48-8.93.84-11.49,1.36-17.25,3.53-35.61,3.45-52.88,0-6.53-1.33-9.68-2.33-7.3,5.59,4.54,15.11,13.12,28.01,22.13,39.99,35.81,47.56,70.39,91.12,115.83,129.11,11.22,9.38,125.69,111.6,135.58,99.85l4.24-3.62Z"/>
    <g>
      <path class="cls-6" d="M560.91,94.28c-8.94-6.28-4.01-27.44-1.21-64.95,0,0,.97-13.84,9.07-24.81,4.45-6.02,11.19-2.02,15.95,1.54,14.8,11.06,27.51,25.05,39.33,39.14,14.2,16.93,27.71,34.44,41.15,51.98,7.03,9.17,14.87,18.23,19.54,28.9,2.11,4.83,3.69,9.87,4.99,14.97,1.01,3.98,3.67,10.83,2.66,14.7-4.44-.46-6.65-7.34-9.41-10.2-3.63-3.75-7.49-7.27-11.56-10.53-20.63-16.55-45.24-27.7-70.92-33.56-1.81-.41-3.84-.79-7.9-1.59-4.11-.81-10.68-2.11-17.8-3.34-13.81-2.39-13.09-1.67-13.91-2.25Z"/>
      <path class="cls-2" d="M561.67,92.98c-.38-.27-1.33-1.22-1.6-1.59-.51-.71-1.03-1.72-1.27-2.32-.85-2.19-1.19-4.55-1.36-6.88-.52-7.22.27-14.55.94-21.74.96-10.38,1.96-20.75,2.83-31.14.5-6.02,2.47-12.69,5.32-18.27,1.93-3.78,4.48-9.09,9.56-7.94,4.48,1.02,8.38,4.53,11.86,7.33,9.05,7.3,17.27,15.58,25.03,24.22,16.35,18.21,31.3,37.7,46.2,57.09,3.52,4.58,7.06,9.15,10.61,13.72,3.46,4.45,6.85,8.98,9.75,13.83s5.26,10.33,7,15.9c.8,2.54,1.42,5.13,2.16,7.69.62,2.16,1.32,4.31,1.83,6.5.45,1.91.9,4.03.44,5.97l1.45-1.1c-1.79-.24-3.11-2.09-4.04-3.46-1.13-1.65-2.06-3.43-3.26-5.03-1.69-2.26-3.92-4.19-5.98-6.1-2.25-2.08-4.57-4.07-6.96-5.98-9.18-7.33-19.15-13.64-29.66-18.88s-21.53-9.43-32.84-12.58c-10.05-2.8-20.37-4.62-30.63-6.47-5.09-.92-10.19-1.81-15.32-2.45-.43-.05-.86-.1-1.29-.15-.15-.02-.31-.04-.46-.05-.4-.04.25-.02.05,0-.09.01-.3-.04-.38-.09.61.35.16.05.03-.04-1.59-1.11-3.09,1.49-1.51,2.59.75.52,1.69.52,2.57.62,3.44.39,6.86.96,10.29,1.54,10.59,1.8,21.29,3.63,31.71,6.28,22.93,5.83,44.89,15.95,63.63,30.46,2.74,2.12,5.41,4.35,7.98,6.69,2.22,2.02,4.77,4.09,6.51,6.55,2.58,3.66,4.56,8.87,9.57,9.54.62.08,1.31-.52,1.45-1.1,1.05-4.42-.85-9.26-2.09-13.45-1.65-5.58-3.06-11.15-5.35-16.52-4.6-10.83-12.26-19.84-19.38-29.07-15.68-20.31-31.2-40.8-48.06-60.17-7.92-9.11-16.25-17.91-25.45-25.75-4-3.41-8.19-7.16-12.91-9.55-4.01-2.04-8.79-2.64-12.17.91-1.83,1.93-3.23,4.44-4.44,6.79s-2.14,4.59-2.97,6.98c-1.2,3.46-2.07,7.04-2.58,10.66-.47,3.34-.61,6.73-.9,10.1-.48,5.59-1.03,11.18-1.57,16.76-.81,8.29-1.81,16.66-1.7,25.01.06,4.93.42,10.62,3.62,14.64.64.81,1.39,1.48,2.23,2.08,1.57,1.12,3.07-1.48,1.51-2.59Z"/>
    </g>
    <g>
      <path class="cls-6" d="M584.7,100.69c-9.01,10.35-16.61,21.93-22.5,34.32-.41.86-.82,1.82-.55,2.73.27.92,1.14,1.51,1.99,1.95,8.45,4.32,18.56-.19,26.83-4.84,12.69-7.14,25.13-14.73,37.27-22.77"/>
      <path class="cls-2" d="M583.64,99.63c-5.27,6.07-10.08,12.53-14.35,19.34-2.14,3.41-4.14,6.91-6,10.48-.89,1.71-1.78,3.42-2.57,5.18-.74,1.66-1.01,3.46.27,4.94,1.12,1.31,2.95,2.01,4.54,2.52,1.73.56,3.58.82,5.4.84,3.81.05,7.58-.95,11.1-2.33,7.6-2.98,14.65-7.51,21.65-11.67,8.39-4.99,16.66-10.18,24.8-15.56,1.6-1.06.1-3.66-1.51-2.59-6.67,4.41-13.43,8.7-20.28,12.85s-13.2,8.03-20.03,11.57c-6.06,3.14-13.47,6.22-20.33,4-1.21-.39-3.56-1.02-3.16-2.64s1.54-3.31,2.3-4.8c1.7-3.32,3.53-6.57,5.47-9.76,4.36-7.15,9.32-13.92,14.82-20.25,1.26-1.45-.85-3.58-2.12-2.12h0Z"/>
    </g>
    <g>
      <path class="cls-6" d="M634.36,116.21c-11.23,6.47-22.19,13.43-32.84,20.83-2.42,1.69-5.14,4.18-4.36,7.03.58,2.14,2.92,3.26,5.07,3.79,8.25,2.02,16.83-.73,24.87-3.45,11.64-3.93,23.27-7.86,34.91-11.8"/>
      <path class="cls-2" d="M633.6,114.92c-7.14,4.12-14.17,8.43-21.08,12.92-3.42,2.23-6.81,4.5-10.17,6.81-2.62,1.81-6.01,3.91-6.7,7.29s1.76,5.76,4.65,6.88c3.48,1.35,7.58,1.43,11.25,1.05,8.1-.84,15.84-3.98,23.5-6.57,9.12-3.08,18.24-6.16,27.36-9.25,1.82-.61,1.04-3.51-.8-2.89-7.47,2.52-14.94,5.05-22.41,7.57s-14.47,5.27-21.9,7.08c-3.45.84-6.99,1.38-10.55,1.19-2.31-.12-7.36-.49-8.15-3.34s3.38-5.14,5.25-6.43c3.16-2.18,6.35-4.32,9.57-6.42,7.1-4.64,14.34-9.07,21.69-13.31,1.67-.96.16-3.56-1.51-2.59h0Z"/>
    </g>
    <g>
      <path class="cls-6" d="M668.53,138.15c-12.95,5.43-25.89,10.85-38.84,16.28-.43.18-.89.38-1.11.74-.58.92.71,1.93,1.84,2.46,14.69,6.84,33.32,6.83,47.25-.02,2.62-1.29,5.1-2.81,7.96-3.69"/>
      <path class="cls-2" d="M668.13,136.7c-7.46,3.13-14.93,6.26-22.39,9.38l-11.42,4.79c-1.68.7-3.35,1.4-5.03,2.11-1.42.6-2.78,1.68-2.23,3.42.47,1.47,2.03,2.27,3.33,2.85,1.61.72,3.24,1.37,4.91,1.93,3.12,1.05,6.33,1.83,9.58,2.32,6.64,1.02,13.39.98,20.01-.21,3.53-.63,7.01-1.61,10.33-2.97,3.67-1.5,7.03-3.75,10.81-4.97,1.83-.59,1.05-3.49-.8-2.89-3.18,1.03-6.01,2.77-9.02,4.18-2.62,1.23-5.38,2.18-8.18,2.9-5.81,1.49-11.84,1.97-17.82,1.56s-12.14-1.8-17.74-4.2c-.66-.28-1.38-.54-1.97-.95-.34-.23-.48-.68-.63-.21-.18.56.45.03.68-.07,1.81-.81,3.66-1.53,5.48-2.3l10.05-4.21c7.62-3.19,15.23-6.38,22.85-9.58.75-.32,1.27-.99,1.05-1.85-.19-.71-1.1-1.36-1.85-1.05h0Z"/>
    </g>
    <path class="cls-4" d="M551.64,177.74c21.77-8.84,45.89,3.74,68.52-1.16-26.55-12.75-57.67-20.82-86.16-23.87,1.45,3.03,3.63,5.87,5.39,8.66,2.97,4.73,7.37,8.62,8.92,11.82.96,1.98,1.93,2.54,3.34,4.55Z"/>
    <path class="cls-2" d="M791.3,606.52c14.59,10.61,31.01,18.67,48.27,23.91,17.24,5.25,35.42,7.69,53.44,7.06,11.4-.4,22.77-2.03,33.82-4.86,3.74-.96,2.15-6.74-1.6-5.79-18.15,4.64-37.05,5.83-55.66,3.73-17.1-1.93-34.01-6.73-49.58-14.06-9.01-4.24-17.61-9.33-25.67-15.19-1.31-.95-3.34-.22-4.1,1.08-.89,1.52-.24,3.15,1.08,4.1h0Z"/>
    <path class="cls-6" d="M408.68,321.95c-1.44,9.49,34.44,89.07,38.67,97.2,15.38,29.58,32.28,58.32,49.4,86.89,1.3,2.18,2.49,4.63,4.15,6.49-.7-.78.51-9.49.54-10.58.14-4.91,11.45-9.78,11.59-14.69.29-9.81-10.58-19.65-10.3-29.46.39-13.41,4.7-26.76,5.44-40.15.31-5.62,3.72-11.07,5.78-16.38,1.91-4.93,4.22-1.65,3.9-7.18-.29-5.08-9.69-17.36-12.77-21.4-7.96-10.43-14.75-21.71-21-33.26-1.47-2.72-16.9-33.86-17.83-33.44-15.77,7.14-25.98,4.19-54.98,17.03-.31.14-2.54-1.58-2.62-1.06Z"/>
    <path class="cls-4" d="M340.11,168.09c-18.64-1.45-37.58,1.42-54.8,8.8-8.66,3.71-16.99,8.2-25.02,13.16-8.65,5.34-16.97,11.24-24.97,17.55-8.19,6.46-16.05,13.36-23.54,20.66-7.3,7.11-14.26,14.6-20.74,22.49-6,7.3-11.62,14.96-16.57,23.04-2.06,3.36-4,6.8-5.79,10.32-71.06,140.25,119.43,338.06,136.53,355.42,11.19,11.36,21.83,23.4,33.73,34.02,12.3,10.99,26.25,18.07,39.77,26.99,26.5,17.47,55.97,30.2,84.26,43.98,6.02,2.94,12.44,7.17,18.83,9.46,7.54,2.7,17.92,9.39,24.67,13.32,14.19,8.25,25.25,10.93,39.73,18.66,31.95,17.06,62.5,47.78,99.37,40.47,24.39-4.84,70.73-31.76,72.39-53.26,4.14-53.64-217.13-43.26-318.76-179.96-15.83-21.29-29.16-44.46-40.31-68.59s-20.31-49.71-27.1-75.67c-6.39-24.43-10.82-49.46-12.56-74.67-1.51-21.96-1.05-44.28,3.09-65.91,3.35-17.48,9.21-35.05,19.85-49.37,2.15-2.9,4.5-5.65,7.05-8.2,1.27-1.27,2.69-2.48,3.34-4.22.88-2.33.42-4.6.13-7.01-.68-5.65-1.04-11.23-1-16.92.04-5.13.63-17.65,1.86-29.37,1-9.49,2.53-18.97,2.28-20.19-.78-3.75-2.9-3.34-6.3-3.88-3.13-.49-6.27-.86-9.42-1.1Z"/>
    <path class="cls-6" d="M692.31,263.73c-.17.06-.35.11-.52.16-2.48.67-4.9-.02-7.37-.22s-5.04-.73-7.46-1.36c-4.11-1.06-8.12-2.45-12.11-3.88s-7.68-2.78-11.6-3.94c-8.34-2.47-16.68-5.11-25.28-7.16-29.44-7.01-60.9-9.58-91.07-15.09-.5-.09-1.6-.35-2.09-1.06-.85-1.22-1.01-3.25-1.15-4.25-1-6.72-3.96-13-8.41-18.12-1.7-1.93-2.69-2.78,1.61-3.79,8.2-1.92,15.95-1.94,23.31-1.6,29.23,1.35,56.28,3.2,82.31,10.05,1.9.5,3.78,1.04,5.67,1.57,3.52.99,7.02,2.01,10.53,3.04,4.47,1.32,8.94,2.67,13.39,4.06,4.77,1.49,9.54,3.03,14.27,4.63,4.42,1.5,8.82,3.05,13.16,4.75,2.6,1.01,5.19,2.06,7.71,3.25,1.15.54,2.24,1.12,3.42,1.58,1.4.56,2.65,1.25,3.36,2.62s.89,2.93.83,4.43c-.23,5.8-1.28,12.63-6.03,16.51-1.84,1.51-4.21,3.03-6.47,3.8Z"/>
    <g>
      <path class="cls-6" d="M575.17,273.67c4.18-12.25,8.22,2.27-8.85-61.29-2.46-9.16-5.8-39.81-90.98-125.92-27.41-27.72-50.89-51.31-79.17-54.96-33.52-4.32-73.65,205.92-23.08,266.2,51.73,61.66,186.34,22.08,202.08-24.04Z"/>
      <path class="cls-2" d="M576.61,274.07c.11-.31.22-.63.34-.93.05-.14.11-.28.17-.43.19-.49-.07.14.08-.2.2-.46.42-.92.65-1.36.37-.71.78-1.39,1.17-2.09.86-1.55,1.3-3.13,1.31-4.92,0-3.39-.86-6.84-1.6-10.12-1.68-7.43-3.68-14.8-5.63-22.16s-3.99-14.33-5.74-21.55c-.42-1.76-.86-3.51-1.37-5.24-1.86-6.3-4.53-12.34-7.55-18.16-5.49-10.56-12.16-20.49-19.21-30.05-11.6-15.75-24.38-30.63-37.6-45.04-9.05-9.86-18.35-19.48-27.76-28.99s-18.71-18.88-28.8-27.51c-8.68-7.42-17.99-14.36-28.38-19.21-4.75-2.22-9.72-4.01-14.85-5.13-2.5-.55-5.22-1.27-7.8-.95-6.6.8-11.33,7.27-14.6,12.44-5.66,8.96-9.51,19.12-12.82,29.14-4.4,13.31-7.72,26.99-10.42,40.74-3.07,15.68-5.3,31.54-6.74,47.46-1.47,16.23-2.12,32.56-1.64,48.85.44,15.1,1.82,30.25,4.92,45.06,2.6,12.43,6.43,24.88,12.89,35.89,7.13,12.15,18.03,21.79,30.4,28.38,14.2,7.57,30.17,11.27,46.14,12.46,16.8,1.25,33.79-.27,50.25-3.77s31.03-8.51,45.29-15.81c11.57-5.93,23.03-13.44,31.32-23.62,3.23-3.96,5.94-8.33,7.61-13.18.63-1.83-2.27-2.62-2.89-.8-3.56,10.33-12.3,18.62-21.01,24.95-11.79,8.57-25.24,14.82-39.01,19.49-15.57,5.29-31.86,8.64-48.28,9.76-16.11,1.1-32.51.09-48.11-4.26-14.79-4.12-28.76-11.42-39.51-22.51-8.32-8.58-13.77-19.18-17.56-30.43-4.43-13.18-6.81-27.01-8.16-40.82-1.53-15.56-1.75-31.24-1.14-46.86s2.14-32.15,4.47-48.09c2.16-14.74,4.99-29.4,8.72-43.83,3.05-11.8,6.64-23.58,11.6-34.73,1.87-4.21,3.94-8.34,6.42-12.23,1.92-3.01,3.77-5.56,6.57-7.94.67-.58.63-.56,1.45-1.1.55-.37,1.12-.68,1.71-.98s0-.05.52-.22c.3-.1.61-.21.92-.29.25-.07.5-.11.75-.17.42-.09-.01,0,.1-.02.17-.02.33-.03.5-.04.75-.04,1.48.05,2.22.16,2.51.37,4.99.9,7.43,1.58,5.11,1.41,10.01,3.46,14.69,5.94,10.11,5.36,19.16,12.52,27.67,20.11,9.96,8.88,19.33,18.42,28.69,27.92,16.44,16.67,32.44,33.82,47.31,51.91,9.42,11.46,18.44,23.32,26.28,35.92,2.62,4.21,5.1,8.5,7.34,12.92.88,1.73,1.73,3.49,2.53,5.26s1.18,2.66,1.85,4.38c1.58,4.01,2.77,8.12,3.79,12.3,3.56,14.69,8.11,29.15,11.41,43.91.43,1.92.84,3.85,1.13,5.8.03.18.05.37.08.55-.05-.37,0,.02.02.17.04.33.07.66.1.99.04.52.07,1.05.06,1.58,0,.22-.02.44-.03.66,0,.1-.02.2-.03.3-.01.15.09-.44,0-.03-.08.35-.16.7-.26,1.04-.04.14-.1.28-.16.41.22-.58,0,.01-.09.17-.15.3-.31.59-.48.89-1,1.77-1.89,3.54-2.55,5.46s2.27,2.62,2.89.8Z"/>
    </g>
    <path class="cls-9" d="M405.45,248.54c-2.51.79-8.19-3.26-10.3-1.9-3.03,1.93.08,7.67,1.43,11.9,31.08,65.52,155.2,49.97,147.36-21.81-.58-5.29-3.17-5.82-6.77-12.12l-131.71,23.94Z"/>
    <path class="cls-11" d="M408.03,253.74c14.14-2.51,28.31-5.07,42.46-7.61,23.77-4.17,47.45-8.72,71.27-12.63,5.82-1.2,18.83-4.68,14.53-9.61s-108.56-139.99-138.92-53.61c-7.3,19.58-8.84,44.59-6.04,67,.66,4.95,1.54,10.9,5.11,14.42l.12.11c3.06,2.87,7.53,2.6,11.46,1.92Z"/>
    <path class="cls-10" d="M916.04,417.08c1.27.13,2.28.77,3.32,1.47,2.15,1.47,5.88,4.08,10.33,7.16,6.01,4.18,12.67,8.8,18.73,13.01,1.99,1.38,3.87,2.69,5.75,4,1.2.83,2.32,1.61,3.48,2.41,2.72,1.88,3.61,2.56,4.86,5.85,1,2.63,1.93,5.49,2.85,8.18,1.92,5.39,1.46,7.05-4.59,7.39-6.45.49-10.47.81-17.48-.25-8.78-1.2-18.33-2.07-25.68-3.36-7.81-2.04-16.46-4.85-24.35-7.24-3.24-1.07-3.88-1.91-3.65-4.91.4-4.64.97-9.36,1.44-14.08.5-4.3,1.03-11.19,1.66-14.36.47-2.64,3.3-2.93,5.58-3.29,5.42-.57,12.12-1.98,17.63-1.98h.11Z"/>
    <path class="cls-4" d="M504.98,479.97c28.43,54.59,165.39,42.77,183-2,16.07-40.85-55.83-138.23-122-121-49.12,12.79-80.78,85.02-61,123Z"/>
    <path class="cls-2" d="M512.48,465.47c20.71-8.06,42.64-12.48,64.74-14.38s44.98-1.47,67.42-.17c12.69.74,25.36,1.75,38.03,2.79,1.62.13,3-1.47,3-3,0-1.73-1.38-2.87-3-3-22.63-1.86-45.28-3.64-67.99-3.89-22.58-.25-45.28,1.05-67.47,5.41-12.38,2.43-24.56,5.86-36.32,10.44-1.51.59-2.56,2.01-2.1,3.69.4,1.44,2.17,2.69,3.69,2.1h0Z"/>
    <path class="cls-4" d="M588.34,288.84c10.24-16.73,102.29,11.07,101.04,26.24-.95,11.51-56.74,29.43-86.7,2.18-7.37-6.7-18.75-21.2-14.33-28.42Z"/>
    <path class="cls-3" d="M697.91,328.01c-20.23-18.2-42.73-33.84-66.85-46.45-6.74-3.52-13.61-6.8-20.58-9.85.15.06-.16,1.18,0,1.25,24.94,10.89,48.49,24.9,69.94,41.64,6,4.68,11.82,9.57,17.48,14.66-.2-.18.21-1.06,0-1.25Z"/>
    <path class="cls-3" d="M692.01,341.91c-14.97-4.44-30.44-7.07-46.03-7.83.01,0-.03,1.25,0,1.25,15.6.76,31.06,3.39,46.03,7.83-.1-.03.12-1.21,0-1.25Z"/>
    <path class="cls-3" d="M693.99,362.43c-26.96-.86-53.98.06-80.82,2.76-7.53.76-15.04,1.66-22.54,2.69-.07,0,.05,1.24,0,1.25,26.72-3.69,53.68-5.62,80.66-5.76,7.57-.04,15.13.07,22.7.31,0,0,.02-1.25,0-1.25Z"/>
    <path class="cls-3" d="M956.44,482.08c13.38.46,26.77.94,40.11,2.21,13.23,1.26,26.43,3.3,39.41,6.9,7.32,2.03,14.55,4.57,21.65,7.7-.07-.03.13-1.21.05-1.25-12.63-5.57-25.67-9.21-38.84-11.6-13.17-2.39-26.47-3.55-39.77-4.28-7.52-.41-15.04-.67-22.57-.94,0,0-.06,1.25-.05,1.25Z"/>
    <path class="cls-3" d="M940.96,486.88c19.48,4.46,38.48,10.27,56.69,17.34,18.2,7.07,35.6,15.38,51.87,24.79,9.18,5.31,17.98,10.97,26.38,16.94-.22-.16.35-.92.12-1.08-14.89-10.59-31.08-20.18-48.28-28.61-17.19-8.42-35.37-15.69-54.22-21.65-10.63-3.36-21.47-6.3-32.46-8.82.07.01-.21,1.06-.12,1.08Z"/>
    <path class="cls-5" d="M956.4,478.17c-3.22,0-3.22,5,0,5s3.22-5,0-5Z"/>
    <path class="cls-5" d="M941.09,484.24c-3.22,0-3.22,5,0,5s3.22-5,0-5Z"/>
    <g>
      <path class="cls-3" d="M932.48,506.73c12.78,4.77,25.72,12.61,38.52,23.32,12.8,10.7,25.47,24.24,37.71,40.33,6.9,9.07,13.66,18.96,20.23,29.6-.16-.26-.1-1.45-.27-1.73-11.66-18.86-23.91-35.36-36.46-49.17-12.56-13.81-25.41-24.95-38.28-33.12-7.25-4.61-14.51-8.26-21.71-10.95.05.02.2,1.7.27,1.73Z"/>
      <path class="cls-5" d="M928.55,503.05c-2.88,1.43-.66,5.91,2.23,4.48s.66-5.91-2.23-4.48Z"/>
    </g>
    <path class="cls-3" d="M952.16,500.06c6.91,2.89,13.84,7.45,20.62,13.56,6.78,6.12,13.42,13.77,19.75,22.81,3.57,5.09,7.05,10.63,10.4,16.56-.08-.15-.02-.79-.1-.95-5.95-10.53-12.29-19.79-18.85-27.59-6.57-7.8-13.37-14.15-20.24-18.89-3.88-2.67-7.78-4.83-11.67-6.45.03.01.07.93.1.95Z"/>
    <path class="cls-5" d="M952.5,498.63c-3.22,0-3.22,5,0,5s3.22-5,0-5Z"/>
    <path class="cls-7" d="M425.65,274.51c-3.51-3.39-7.12-6.67-10.84-9.83.05.04,0,.54,0,.62,0,.1-.07.56,0,.62,3.72,3.16,7.33,6.44,10.84,9.83-.06-.06,0-.54,0-.62,0-.1.07-.55,0-.62Z"/>
    <path class="cls-7" d="M455.1,272.07c-5.63-4.1-11.26-8.21-16.89-12.31.19.14-.2,1.1,0,1.25,5.63,4.1,11.26,8.21,16.89,12.31-.19-.14.2-1.1,0-1.25Z"/>
    <path class="cls-7" d="M537.32,244.19s.01-.17,0-.18c-1.99-1.29-3.83-2.82-5.45-4.55,0,0,0,.2,0,.18,0,.15,0,.29,0,.44s0,.29,0,.44c0,.03-.02.16,0,.18,1.63,1.73,3.46,3.26,5.45,4.55-.04-.03,0-.56,0-.62,0-.15,0-.29,0-.44Z"/>
    <path class="cls-7" d="M531.2,255.09s.02-.16,0-.18c-2.04-1.93-3.93-4.01-5.65-6.23,0,.01,0,.19,0,.18,0,.15,0,.29,0,.44s0,.29,0,.44c0,.04-.02.16,0,.18,1.72,2.22,3.61,4.3,5.65,6.23-.06-.05,0-.54,0-.62,0-.15,0-.29,0-.44Z"/>
    <path class="cls-7" d="M513.42,241.13c-.65-.54-1.3-1.08-1.95-1.61,0,0,0,.2,0,.18,0,.15,0,.29,0,.44,0,.15,0,.29,0,.44,0,.03-.01.17,0,.18.65.54,1.3,1.08,1.95,1.61,0,0,0-.2,0-.18,0-.15,0-.29,0-.44,0-.15,0-.29,0-.44,0-.03.01-.17,0-.18Z"/>
    <path class="cls-7" d="M501.42,251.09s.02-.16,0-.18c-2.14-2.23-4.27-4.47-6.41-6.7.06.06,0,.53,0,.62,0,.15,0,.29,0,.44,0,.03-.02.16,0,.18,2.14,2.23,4.27,4.47,6.41,6.7-.06-.06,0-.53,0-.62,0-.15,0-.29,0-.44Z"/>
    <path class="cls-7" d="M505.98,274.34c-1.05-1.2-2.03-2.45-2.95-3.75-.45-.64-.89-1.29-1.3-1.95-.42-.67-.81-1.36-.86-2.17.02.3-.03.83,0,1.21.05.73.35,1.36.72,1.98.43.7.89,1.39,1.36,2.06.94,1.34,1.96,2.63,3.03,3.87-.06-.07,0-.52,0-.62,0-.12.07-.53,0-.62Z"/>
    <path class="cls-7" d="M480.65,293.01c-.98-1-1.87-2.07-2.67-3.22.01.01,0,.19,0,.18,0,.15,0,.29,0,.44,0,.15,0,.29,0,.44,0,.04-.02.15,0,.18.8,1.15,1.69,2.22,2.67,3.22,0,0,0-.2,0-.18,0-.15,0-.29,0-.44,0-.15,0-.29,0-.44,0-.03.02-.16,0-.18Z"/>
    <path class="cls-7" d="M461.4,295.93l-9.28-10.05c.06.06,0,.53,0,.62,0,.11-.07.54,0,.62l9.28,10.05c-.06-.06,0-.53,0-.62,0-.11.07-.54,0-.62Z"/>
    <path class="cls-7" d="M480.65,281.12c-3.73-4.4-7.74-8.55-12-12.44.06.05,0,.54,0,.62,0,.1-.07.55,0,.62,4.26,3.89,8.27,8.04,12,12.44-.06-.07,0-.52,0-.62,0-.12.07-.53,0-.62Z"/>
    <path class="cls-7" d="M464.2,263.34c-1.78-2.52-3.56-5.04-5.33-7.56.06.09,0,.51,0,.62,0,.13-.07.51,0,.62,1.78,2.52,3.56,5.04,5.33,7.56-.06-.09,0-.51,0-.62,0-.13.07-.51,0-.62Z"/>
    <path class="cls-1" d="M697.81,325.8c-3.22,0-3.22,5,0,5s3.22-5,0-5Z"/>
    <path class="cls-1" d="M691.73,339.97c-3.22,0-3.22,5,0,5s3.22-5,0-5Z"/>
    <path class="cls-1" d="M693.73,360.97c-3.22,0-3.22,5,0,5s3.22-5,0-5Z"/>
  </g>
</svg>